<svg width="7" height="12" viewBox="0 0 7 12" fill="none" xmlns="http://www.w3.org/2000/svg">
<path d="M0.500014 10.8999V1.5916C0.499052 1.42608 0.547403 1.26402 0.638904 1.12609C0.730405 0.988154 0.86091 0.880594 1.01378 0.817122C1.16665 0.75365 1.33496 0.73714 1.49725 0.769698C1.65954 0.802256 1.80846 0.882407 1.92502 0.999931L6.57503 5.65826C6.73024 5.8144 6.81735 6.02561 6.81735 6.24576C6.81735 6.46592 6.73024 6.67713 6.57503 6.83326L1.92502 11.4916C1.80846 11.6091 1.65954 11.6893 1.49725 11.7218C1.33496 11.7544 1.16665 11.7379 1.01378 11.6744C0.86091 11.6109 0.730405 11.5034 0.638904 11.3654C0.547403 11.2275 0.499052 11.0655 0.500014 10.8999Z" fill="#003B71"/>
</svg>
