<svg width="45" height="43" viewBox="0 0 45 43" fill="none" xmlns="http://www.w3.org/2000/svg">
<path d="M41.3565 8.80584L27.5303 2.21897C24.4868 0.401036 20.6987 0.36878 17.6246 2.13459L3.64281 8.80584C3.59034 8.83212 3.53594 8.86024 3.48531 8.89021C0.167268 10.7874 -0.984627 15.0152 0.91258 18.3333C1.55568 19.4581 2.50164 20.3797 3.64281 20.9934L7.49972 22.8309V32.0184C7.502 36.1266 10.1752 39.7562 14.0978 40.9771C16.8276 41.7668 19.6582 42.1535 22.4997 42.1246C25.3409 42.1565 28.1714 41.7731 30.9017 40.9865C34.8243 39.7657 37.4975 36.136 37.4998 32.0278V22.8271L41.2498 21.0346V36.4996C41.2498 37.5351 42.0892 38.3745 43.1248 38.3745C44.1603 38.3745 44.9997 37.5351 44.9997 36.4996V13.9996C45.0122 11.7978 43.2738 9.76385 41.3565 8.80584ZM33.7497 32.0278C33.7506 34.4851 32.1563 36.6587 29.8122 37.3959C27.4351 38.0751 24.9718 38.4048 22.4997 38.3746C20.0276 38.4048 17.5643 38.0751 15.1872 37.3959C12.843 36.6586 11.2487 34.4851 11.2497 32.0278V24.6178L17.4691 27.5803C19.0036 28.4916 20.7563 28.9704 22.541 28.9659C24.2397 28.978 25.9099 28.5282 27.3728 27.6647L33.7497 24.6177V32.0278ZM39.7497 17.609L25.6084 24.359C23.6367 25.5071 21.1927 25.4746 19.2522 24.2746L5.41653 17.6933C3.87432 16.8617 3.29828 14.9374 4.1299 13.3952C4.41115 12.8737 4.83285 12.4413 5.34719 12.1471L19.4003 5.43462C21.3726 4.28905 23.8153 4.32149 25.7565 5.51899L39.5828 12.1059C40.5996 12.6705 41.2357 13.7367 41.2496 14.8996C41.2515 16.0013 40.6842 17.0257 39.7497 17.609Z" fill="#003B71" fill-opacity="0.87"/>
</svg>
