<svg width="20" height="20" viewBox="0 0 20 20" fill="none" xmlns="http://www.w3.org/2000/svg">
<path d="M11.414 10L14.243 7.172C14.4306 6.98436 14.5361 6.72986 14.5361 6.4645C14.5361 6.19914 14.4306 5.94464 14.243 5.757C14.0554 5.56936 13.8009 5.46394 13.5355 5.46394C13.2701 5.46394 13.0156 5.56936 12.828 5.757L10 8.586L7.172 5.757C6.98436 5.56936 6.72986 5.46394 6.4645 5.46394C6.19914 5.46394 5.94464 5.56936 5.757 5.757C5.56936 5.94464 5.46394 6.19914 5.46394 6.4645C5.46394 6.72986 5.56936 6.98436 5.757 7.172L8.586 10L5.757 12.828C5.56936 13.0156 5.46394 13.2701 5.46394 13.5355C5.46394 13.8009 5.56936 14.0554 5.757 14.243C5.94464 14.4306 6.19914 14.5361 6.4645 14.5361C6.72986 14.5361 6.98436 14.4306 7.172 14.243L10 11.414L12.828 14.243C13.0156 14.4306 13.2701 14.5361 13.5355 14.5361C13.8009 14.5361 14.0554 14.4306 14.243 14.243C14.4306 14.0554 14.5361 13.8009 14.5361 13.5355C14.5361 13.2701 14.4306 13.0156 14.243 12.828L11.414 10ZM10 20C4.477 20 0 15.523 0 10C0 4.477 4.477 0 10 0C15.523 0 20 4.477 20 10C20 15.523 15.523 20 10 20Z" fill="white"/>
</svg>
