<svg width="109" height="100" viewBox="0 0 109 100" fill="none" xmlns="http://www.w3.org/2000/svg">
<path d="M43.4037 6.275C48.0303 -2.09167 60.056 -2.09167 64.6825 6.275L106.548 81.9479C111.034 90.0551 105.17 100 95.9062 100H12.1855C2.91622 100 -2.94801 90.0551 1.53799 81.9479L43.4037 6.2804V6.275ZM59.4398 78.3807C59.4627 77.6576 59.3401 76.9373 59.0792 76.2626C58.8183 75.5878 58.4244 74.9724 57.921 74.4528C57.4176 73.9332 56.8149 73.5201 56.1488 73.238C55.4826 72.9559 54.7666 72.8105 54.0431 72.8105C53.3197 72.8105 52.6036 72.9559 51.9375 73.238C51.2713 73.5201 50.6686 73.9332 50.1652 74.4528C49.6619 74.9724 49.268 75.5878 49.0071 76.2626C48.7462 76.9373 48.6235 77.6576 48.6464 78.3807C48.6908 79.7824 49.2788 81.1119 50.286 82.0878C51.2933 83.0636 52.6407 83.6093 54.0431 83.6093C55.4456 83.6093 56.793 83.0636 57.8002 82.0878C58.8075 81.1119 59.3955 79.7824 59.4398 78.3807ZM58.04 35.9367C57.8999 34.9187 57.3785 33.992 56.5813 33.3438C55.784 32.6956 54.7703 32.3745 53.7452 32.4452C52.7201 32.5159 51.7602 32.9732 51.0594 33.7248C50.3587 34.4763 49.9695 35.4658 49.9706 36.4934L49.9922 60.8204L50.03 61.3717C50.1701 62.3897 50.6915 63.3164 51.4888 63.9646C52.2861 64.6127 53.2997 64.9339 54.3248 64.8632C55.3499 64.7925 56.3099 64.3351 57.0106 63.5836C57.7113 62.8321 58.1005 61.8426 58.0994 60.815L58.0778 36.4825L58.04 35.9367Z" fill="#E6302A"/>
</svg>
