<!DOCTYPE svg PUBLIC "-//W3C//DTD SVG 1.1//EN" "http://www.w3.org/Graphics/SVG/1.1/DTD/svg11.dtd">
<!-- Uploaded to: SVG Repo, www.svgrepo.com, Transformed by: SVG Repo Mixer Tools -->
<svg fill="#003b71" width="256px" height="256px" viewBox="0 0 512 512" xmlns="http://www.w3.org/2000/svg">
<g id="SVGRepo_bgCarrier" stroke-width="0"/>
<g id="SVGRepo_tracerCarrier" stroke-linecap="round" stroke-linejoin="round"/>
<g id="SVGRepo_iconCarrier">
<path d="M256,48C141.31,48,48,141.31,48,256s93.31,208,208,208,208-93.31,208-208S370.69,48,256,48Zm32,304H224a16,16,0,0,1,0-32h64a16,16,0,0,1,0,32Zm48-64H176a16,16,0,0,1,0-32H336a16,16,0,0,1,0,32Zm32-64H144a16,16,0,0,1,0-32H368a16,16,0,0,1,0,32Z"/>
</g>
</svg>