<!DOCTYPE svg PUBLIC "-//W3C//DTD SVG 1.1//EN" "http://www.w3.org/Graphics/SVG/1.1/DTD/svg11.dtd">
<!-- Uploaded to: SVG Repo, www.svgrepo.com, Transformed by: SVG Repo Mixer Tools -->
<svg width="256px" height="256px" viewBox="0 0 60.60 60.60" xmlns:cc="http://creativecommons.org/ns#" xmlns:dc="http://purl.org/dc/elements/1.1/" xmlns:rdf="http://www.w3.org/1999/02/22-rdf-syntax-ns#" xmlns:svg="http://www.w3.org/2000/svg" version="1.1" xmlns="http://www.w3.org/2000/svg" fill="#000000">
<g id="SVGRepo_bgCarrier" stroke-width="0"/>
<g id="SVGRepo_tracerCarrier" stroke-linecap="round" stroke-linejoin="round"/>
<g id="SVGRepo_iconCarrier"> <defs/> <metadata> <rdf:rdf> <cc:work rdf:about=""> <dc:format>image/svg+xml</dc:format> <dc:type rdf:resource="http://purl.org/dc/dcmitype/StillImage"/> <dc:title>情報コーナー; Information</dc:title> <dc:source>http://www.ecomo.or.jp/barrierfree/pictogram/data/zukigo_panfu_jis110.pdf</dc:source> </cc:work> </rdf:rdf> </metadata> <path d="m 0,0 c 0,12.079 -9.793,21.872 -21.872,21.872 -12.079,0 -21.871,-9.793 -21.871,-21.872 0,-12.079 9.792,-21.872 21.871,-21.872 C -9.793,-21.872 0,-12.079 0,0 Z" style="stroke-linejoin:miter;stroke-opacity:1;fill-opacity:1;stroke:#003b71;stroke-linecap:butt;stroke-miterlimit:4;stroke-dasharray:none;stroke-width:0.48500001;fill:#ffffff00" transform="matrix(0.000000,1.250000,1.250000,0.000000,30.300503,57.639880)"/> <path d="m 34.961753,47.76613 0,-23.573752 -13.182501,0 0,2.575 3.85875,0 0,20.998752 -3.85875,0 0,2.57375 17.041251,0 0,-2.57375 -3.85875,0" style="fill:#003b71;fill-opacity:1;fill-rule:nonzero;stroke:none"/> <path d="m 30.299253,21.526128 c 3.1975,0 5.78875,-2.59125 5.78875,-5.78875 0,-3.197501 -2.59125,-5.7900009 -5.78875,-5.7900009 -3.19875,0 -5.79,2.5924999 -5.79,5.7900009 0,3.1975 2.59125,5.78875 5.79,5.78875" style="fill:#003b71;fill-opacity:1;fill-rule:nonzero;stroke:none"/> </g>
</svg>