<svg width="19" height="19" viewBox="0 0 19 19" fill="none" xmlns="http://www.w3.org/2000/svg">
<g clip-path="url(#clip0_23_342)">
<path d="M17.5001 7.37857L14.5909 4.46932C14.4494 4.3327 14.26 4.25711 14.0633 4.25882C13.8667 4.26053 13.6786 4.3394 13.5395 4.47846C13.4004 4.61752 13.3216 4.80562 13.3199 5.00227C13.3182 5.19892 13.3937 5.38837 13.5304 5.52982L16.4396 8.43907C16.526 8.52722 16.6016 8.62542 16.6646 8.73157C16.6534 8.73157 16.6444 8.72557 16.6331 8.72557L4.87012 8.74957C4.6712 8.74957 4.48044 8.82859 4.33979 8.96924C4.19913 9.10989 4.12012 9.30066 4.12012 9.49957C4.12012 9.69848 4.19913 9.88925 4.33979 10.0299C4.48044 10.1706 4.6712 10.2496 4.87012 10.2496L16.6286 10.2256C16.6496 10.2256 16.6669 10.2151 16.6871 10.2136C16.6206 10.3404 16.5362 10.4571 16.4366 10.5601L13.5274 13.4693C13.4557 13.5385 13.3986 13.6213 13.3593 13.7128C13.32 13.8043 13.2993 13.9027 13.2984 14.0023C13.2976 14.1019 13.3165 14.2006 13.3542 14.2928C13.392 14.385 13.4477 14.4687 13.5181 14.5391C13.5885 14.6095 13.6722 14.6652 13.7644 14.7029C13.8566 14.7406 13.9553 14.7596 14.0549 14.7588C14.1545 14.7579 14.2529 14.7372 14.3444 14.6979C14.4359 14.6586 14.5187 14.6015 14.5879 14.5298L17.4971 11.6206C18.0595 11.058 18.3755 10.2951 18.3755 9.49957C18.3755 8.70408 18.0595 7.94116 17.4971 7.37857H17.5001Z" fill="white"/>
<path d="M5.62842 17H4.12842C3.53168 17 2.95938 16.7629 2.53743 16.341C2.11547 15.919 1.87842 15.3467 1.87842 14.75V4.25C1.87842 3.65326 2.11547 3.08097 2.53743 2.65901C2.95938 2.23705 3.53168 2 4.12842 2H5.62842C5.82733 2 6.0181 1.92098 6.15875 1.78033C6.2994 1.63968 6.37842 1.44891 6.37842 1.25C6.37842 1.05109 6.2994 0.860322 6.15875 0.71967C6.0181 0.579018 5.82733 0.5 5.62842 0.5H4.12842C3.13422 0.501191 2.18109 0.896661 1.47808 1.59966C0.775079 2.30267 0.379609 3.2558 0.378418 4.25L0.378418 14.75C0.379609 15.7442 0.775079 16.6973 1.47808 17.4003C2.18109 18.1033 3.13422 18.4988 4.12842 18.5H5.62842C5.82733 18.5 6.0181 18.421 6.15875 18.2803C6.2994 18.1397 6.37842 17.9489 6.37842 17.75C6.37842 17.5511 6.2994 17.3603 6.15875 17.2197C6.0181 17.079 5.82733 17 5.62842 17Z" fill="white"/>
</g>
<defs>
<clipPath id="clip0_23_342">
<rect width="18" height="18" fill="white" transform="translate(0.378418 0.5)"/>
</clipPath>
</defs>
</svg>
